<svg width="22" height="22" xmlns="http://www.w3.org/2000/svg">
 <!-- Created with Method Draw - http://github.com/duopixel/Method-Draw/ -->
 <g>
  <title>background</title>
  <rect fill="#fff" id="canvas_background" height="24" width="24" y="-1" x="-1"/>
 </g>
 <g>
  <title>Layer 1</title>
  <ellipse stroke="#00007f" ry="10.40625" rx="9.9375" id="svg_6" cy="11" cx="11" fill-opacity="null" stroke-width="0.5" fill="#fff"/>
  <path stroke="#000" id="svg_1" d="m408.26687,272.89901c23.39325,0 46.78652,0 70.17977,0c0,23.23403 0,46.46808 0,69.70211c-23.39325,0 -46.78652,0 -70.17977,0l0,-69.70211zm-101.37081,0c25.99234,0 51.98519,0 77.97756,0c0,23.23403 0,46.46808 0,69.70211c-25.99234,0 -51.98519,0 -77.97756,0c0,-23.23403 0,-46.46808 0,-69.70211zm-93.57303,0c25.99234,0 51.98518,0 77.97752,0c0,23.23403 0,46.46808 0,69.70211c-25.99234,0 -51.98519,0 -77.97752,0c0,-23.23403 0,-46.46808 0,-69.70211zm-93.57303,0c25.99234,0 51.98518,0 77.97754,0c0,23.23403 0,46.46808 0,69.70211c-25.99236,0 -51.98518,0 -77.97754,0c0,-23.23403 0,-46.46808 0,-69.70211zm288.51687,143.73829c24.69302,-1.57372 49.38561,1.1119 74.07865,-0.46181c1.58438,-24.5248 0.85051,-49.04966 2.43489,-73.57446c23.10866,0 48.53557,0 71.64374,0c0,-23.23403 0,-46.4681 0,-69.70211c-23.39325,0 -46.78652,0 -70.17977,0c0,-25.81564 0,-51.63122 0,-77.4468c-25.99234,0 -51.98518,0 -77.97752,0c0,-23.23403 0,-46.46808 0,-69.70211c25.99234,0 51.98518,0 77.97752,0c0,23.23403 0,46.46808 0,69.70211c23.10819,0 48.5351,-1.15122 71.64374,-1.15122c1.58438,24.52473 0.85053,50.20087 2.43493,74.72567c24.69301,1.57367 49.73387,-0.1335 74.42693,1.44016c0,22.95117 -0.34829,49.18309 -0.34829,72.1343c-25.99234,0 -51.98518,0 -77.97752,0c0,25.81563 0,51.63117 0,77.4468c-23.39325,0 -46.78652,0 -70.17977,0c0,23.23403 0,46.46808 0,69.70211c-25.99234,0 -51.98518,0 -77.97752,0c0,-22.95117 0,-50.16149 0,-73.11268l-0.00002,0.00005z" fill-opacity="null" stroke-opacity="null" stroke-width="4.5" fill="#fff"/>
  <path stroke="#00007f" id="svg_2" d="m17.59375,10.97939l-1.70928,-2.00367l0,-4.78539l-1.46534,0l0,3.06768l-3.41913,-4.008l-6.59375,7.72939l1.56973,-0.04384l0,7.81445l9.97826,0l0,-7.77061l1.63951,0zm-6.59375,6.65295l-3.25613,0l0,-4.58057l3.25613,0l0,4.58057zm3.16346,-1.9631l-2.13968,0l0,-2.64495l2.13968,0l0,2.64495z" fill-opacity="null" stroke-width="0.5" fill="#fff"/>
 </g>
</svg>